<svg class="fill-red-500 mx-auto" width="40" height="40" id="red_logo" data-name="PCC Red Logo" xmlns="http://www.w3.org/2000/svg" viewBox="0 0 603.66 551.33" fill="#ef4444">
    <path d="M564.62,569.14a3.07,3.07,0,0,0,.47.05h98.06l0,26.25H548.32s-24.31.62-35-10.21a29.32,29.32,0,0,1-7.66-16" transform="translate(-59.52 -44.12)"></path>
    <path d="M505.7,529.52v-.26c0-14.61,0-28.23,0-30.82,0-10.25,11.84-22.56,27.52-23.76,11.62-.89,129.91-.27,129.91-.27v28.43h-96.6s-5.31.18-6.47,1.67a9.57,9.57,0,0,0-1.55,4.53v20.43" transform="translate(-59.52 -44.12)"></path>
    <path d="M454.57,476.2v53.22a5.73,5.73,0,0,0,1.72,4.49,7.21,7.21,0,0,0,4.84,2.44h98.06l.26,26.25H444.36s-24.2-1-35.41-9.5c-8.37-6.33-7.24-16.75-7.24-16.75v-54s17.05.2,26.74-.93C445.83,479.44,454.57,476.2,454.57,476.2Z" transform="translate(-59.52 -44.12)"></path>
    <path d="M468.87,441.57h90.32V470h-96.6l-.88.06s5.2-4.45,6.6-15.8C469.6,443.74,468.87,441.57,468.87,441.57Z" transform="translate(-59.52 -44.12)"></path>
    <path d="M345.07,386.42s-31.69-46.68-4.28-103.21c29.29-60.4,96.16-100.92,139-142.2C494,127.39,513,98.3,501.58,70.16c-9.07-22.48-16.87-26-16.87-26s9.79,20.36-41.36,61.79c-11.56,9.37-102,75.84-104.3,78.16-.08.08-37.57,32.85-51.4,56.49-8,13.66-18.92,36.83-14.48,73.8s22,60.83,42.73,67C333.06,386.42,345.07,386.42,345.07,386.42Z" transform="translate(-59.52 -44.12)"></path>
    <path d="M358.4,353.44s9.6-27.72,53.15-61c35.36-27,65-56.3,77.16-68.51s39.37-39.37,38.59-63.38-8-34-8-34-7.72,21.79-31.31,43.2c-39.32,35.65-80.23,65.59-96.16,79.82-13.14,11.75-34,37.14-37.4,61.42C350.14,341.87,358.4,353.44,358.4,353.44Z" transform="translate(-59.52 -44.12)"></path>
    <path d="M531.9,201.67s13.36,46.34-13.49,83.89C443.9,389.78,371.91,390,371.91,390s-5.22-20.84,6.85-35.88c15.77-19.66,97.14-90.52,115-108.57S531.9,201.67,531.9,201.67Z" transform="translate(-59.52 -44.12)"></path>
    <path d="M290.88,419.28V521.09h52.51V476.91H403s32.84,1.71,51.08-8.84c8.39-4.85,8.32-15.8,8.32-15.8V426.74s-.88-14.12-10.39-19.49c-13.56-7.66-43.38-7.28-43.38-7.28H316.87s-.18,3.57,15.37,13.15,23.89,11.51,23.89,11.51l38.95.18s16.51,0,16.51,12.43c0,13.35-17.4,12.12-17.4,12.12H342.87v-21l-15.91.19S303.09,428.74,290.88,419.28Z" transform="translate(-59.52 -44.12)"></path>
    <path d="M264.67,342.79c-16.6-55.44,4.32-88.64,4.32-88.64s-25.23-16.93-67.72-16.6c-15.85.12-34.52,4.64-45.49,8.3s-23.77,9.52-37.18,8.3-11.51,8.18-11.51,8.18l9.52,14.06s-12.24.42-19.57,1.53c-7.75,1.19-25.89,5.16-34.68,9.1-6,2.68-1.93,13,6.78,24.23C79.35,324.41,112,349.09,112,349.09s-10.21-24.59,1.33-27.22c3.76-.85,22.21-1.34,41-1.3,17.06,0,24.67-.13,38,12.92,16.6,16.27,10.14,11.89,38.84,43.16,37.18,40.5,97.27,40.83,97.27,40.83S282.68,402.93,264.67,342.79ZM146.78,270.35c-4.19,1.15-12.95.77-12.95.77s-1.15-8.2,3.24-9,8,.46,13.72-1.52C151.5,260.39,151,269.21,146.78,270.35Z" transform="translate(-59.52 -44.12)"></path>
</svg>