<?xml version="1.0" encoding="UTF-8" standalone="no"?>
<svg
   xmlns:dc="http://purl.org/dc/elements/1.1/"
   xmlns:cc="http://creativecommons.org/ns#"
   xmlns:rdf="http://www.w3.org/1999/02/22-rdf-syntax-ns#"
   xmlns:svg="http://www.w3.org/2000/svg"
   xmlns="http://www.w3.org/2000/svg"
   xmlns:sodipodi="http://sodipodi.sourceforge.net/DTD/sodipodi-0.dtd"
   xmlns:inkscape="http://www.inkscape.org/namespaces/inkscape"
   version="1.1"
   id="svg2"
   xml:space="preserve"
   width="180"
   height="68.578659"
   viewBox="0 0 180 68.578658"
   sodipodi:docname="RS-logo-white.svg"
   inkscape:version="1.0.1 (1.0.1+r73)"><metadata
     id="metadata8"><rdf:RDF><cc:Work
         rdf:about=""><dc:format>image/svg+xml</dc:format><dc:type
           rdf:resource="http://purl.org/dc/dcmitype/StillImage" /><dc:title></dc:title></cc:Work></rdf:RDF></metadata><defs
     id="defs6"><clipPath
       clipPathUnits="userSpaceOnUse"
       id="clipPath18"><path
         d="M 0.06,225.095 H 590.872 V 0 H 0.06 Z"
         id="path16" /></clipPath></defs><sodipodi:namedview
     pagecolor="#ffffff"
     bordercolor="#666666"
     borderopacity="1"
     objecttolerance="10"
     gridtolerance="10"
     guidetolerance="10"
     inkscape:pageopacity="0"
     inkscape:pageshadow="2"
     inkscape:window-width="1728"
     inkscape:window-height="1038"
     id="namedview4"
     showgrid="false"
     inkscape:zoom="1.2239767"
     inkscape:cx="359.70062"
     inkscape:cy="135.77188"
     inkscape:window-x="0"
     inkscape:window-y="24"
     inkscape:window-maximized="1"
     inkscape:current-layer="g10" /><g
     id="g10"
     inkscape:groupmode="layer"
     inkscape:label="Reindeer Shuttle Logo Full Black"
     transform="matrix(1.3333333,0,0,-1.3333333,-0.07999999,300.12661)"><g
       id="g929"
       transform="matrix(0.22849909,0,0,0.22849909,0.04629005,173.66097)"><g
         id="g12"
         style="fill:#ffffff"><g
           id="g14"
           clip-path="url(#clipPath18)"
           style="fill:#ffffff"><path
             d="m 9.327,92.557 c 0,40.632 32.989,73.701 73.591,73.84 -1.408,2.322 -3.773,6.498 -5.257,9.132 C 34.36,172.68 0,136.565 0,92.557 0,63.009 12.125,40.066 35.412,25.311 L 35.753,35.52 C 16.969,48.92 9.327,67.777 9.327,92.557"
             style="fill:#ffffff;fill-opacity:1;fill-rule:nonzero;stroke:none"
             id="path20" /><path
             d="m 95.675,174.776 c -0.432,-2.972 -0.81,-7.226 -0.982,-9.28 11.72,-1.848 22.529,-6.462 31.742,-13.152 2.111,2.203 4.466,4.895 6.251,6.993 -10.667,7.934 -23.297,13.361 -37.011,15.439"
             style="fill:#ffffff;fill-opacity:1;fill-rule:nonzero;stroke:none"
             id="path22" /><path
             d="m 98.396,120.45 c 4.382,-0.173 7.428,2.423 10.485,4.709 8.936,4.35 17.868,8.695 24.851,15.483 10.341,9.394 16.458,23.665 20.724,37.247 1.708,5.371 3.416,10.743 4.811,16.105 -0.925,-0.341 -1.865,-0.371 -2.48,-0.707 -0.919,-0.652 -1.825,-1.619 -2.432,-2.264 -0.135,4.376 -0.282,9.063 -1.032,13.107 -1.168,7.158 -4.496,13.62 -8.142,20.075 -0.33,0.617 -0.962,0.909 -1.592,0.889 -0.312,-0.008 -0.934,-0.029 -0.926,-0.341 -0.304,-0.324 -0.595,-0.957 -0.586,-1.269 1.681,-3.701 3.037,-7.103 4.093,-10.821 2.1,-7.128 2.651,-14.619 1.615,-21.533 -0.544,-2.518 -1.093,-5.04 -1.64,-7.558 -1.29,1.209 -2.266,2.432 -2.928,3.661 -0.987,1.535 -1.361,3.399 -1.743,5.577 -0.006,0.313 -0.018,0.624 -0.338,0.926 -0.323,0.304 -0.643,0.606 -0.956,0.597 -0.938,-0.03 -1.547,-0.675 -2.149,-1.32 0.097,-3.127 0.509,-6.24 1.834,-8.701 1.311,-1.836 2.922,-3.348 4.845,-4.851 -1.974,-6.946 -4.265,-13.583 -7.222,-18.994 -4.443,-7.96 -10.857,-12.854 -20.932,-20.677 -2.754,-1.963 -5.512,-3.926 -6.788,-3.03 -0.653,0.916 -1.034,3.098 -1.095,4.97 0.205,3.449 1.052,6.291 1.911,8.82 -0.039,1.249 -0.391,2.49 -1.025,2.782 -0.633,0.293 -1.571,0.265 -2.497,-0.078 -0.877,-1.904 -1.761,-3.811 -2.953,-5.721 -1.441,-3.8 -2.887,-7.598 -3.386,-11.681 -0.24,-2.198 -0.172,-4.386 -0.107,-6.57 -0.907,-0.968 -1.812,-1.935 -3.015,-3.539 -1.202,-1.599 -2.393,-3.515 -1.736,-4.434 0.332,-0.612 1.581,-0.573 2.531,-0.859"
             style="fill:#ffffff;fill-opacity:1;fill-rule:evenodd;stroke:none"
             id="path24" /></g></g><path
         d="m 77.596,101.524 c 1.139,-1.143 3.139,-1.43 4.851,-1.43 1.425,0.287 2.858,0.287 3.996,1.144 0.857,0.857 1.716,1.713 2.855,1.713 0.286,0 0.857,0 1.425,0.285 0,0 0.287,0.286 0.287,0.572 l -0.287,0.283 c -0.284,0.288 -0.568,0.575 -0.856,0.856 -1.14,0.857 -2.283,2 -3.709,2.571 -2,1.14 -4.284,1.14 -6.281,0 -1.428,-0.571 -2.281,-1.714 -3.71,-2 -0.571,-0.284 -1.426,-0.284 -2.284,-0.284 0,-0.568 0,-1.143 0.286,-1.426 0.285,-0.286 0.853,-0.286 1.427,-0.286 0.856,-0.571 1.428,-1.427 2,-1.998"
         style="fill:#ffffff;fill-opacity:1;fill-rule:evenodd;stroke:none"
         id="path26" /><path
         d="m 98.435,82.393 c -1.999,-1.996 -4.856,-3.423 -7.425,-3.71 -4.567,-0.57 -9.136,1.714 -13.702,2 -4.283,0 -8.567,-1.713 -12.848,-2.57 -4.565,-0.858 -8.837,-0.515 -13.418,0.57 -3.988,0.947 -9.044,7.294 -10.189,9.577 2.574,2 3.612,2.52 5.038,5.093 0.858,1.426 -6.105,3.522 -5.533,4.952 0.569,0.284 9.258,1.506 10.114,1.789 4.566,1.144 9.423,1.714 13.419,4.285 1.998,0.855 3.425,2.285 4.28,4.279 0.288,0.571 0.288,1.144 0.57,1.715 0.289,0.857 0.859,1.431 1.431,1.998 1.139,0.286 1.998,0.571 2.853,1.143 1.997,0.57 3.999,0.855 5.997,1.426 4.85,1.427 9.419,3.711 14.274,5.996 -3.712,5.139 -7.422,9.994 -8.281,15.704 -0.284,3.14 0,6.28 0.859,9.419 1.426,5.137 3.993,9.991 5.136,15.129 0.572,2.857 0.572,6 0.572,9.136 0.287,4.569 0.57,8.852 2.285,12.564 1.427,3.71 3.997,6.566 6.566,9.419 0,0.572 0.283,0.858 0,1.429 0,0.288 -0.29,0.57 -0.571,0.57 -0.573,0.288 -1.144,0 -1.714,0 -3.427,-2.854 -6.853,-5.423 -8.85,-9.135 -1.139,-1.998 -1.998,-4.28 -2.567,-6.85 -0.857,1.427 -1.716,2.854 -2,4.282 -0.859,2.854 0.284,5.422 1.143,9.421 0.569,1.141 0.857,2.57 0,3.139 -0.287,0.286 -0.859,0.286 -1.143,0.286 -0.573,0 -1.142,-0.286 -1.714,-0.57 -0.284,-1.428 -0.57,-2.855 -1.143,-4.283 -0.569,-3.426 -1.425,-6.853 -1.139,-9.992 0.57,-4.281 2.854,-7.993 5.423,-11.991 -0.284,-2.57 -0.853,-5.138 -1.427,-7.708 -0.859,-2.572 -1.714,-5.14 -2.569,-7.993 -0.857,-2.854 -1.713,-5.709 -2.285,-8.564 -0.57,1.427 -1.142,2.855 -1.712,3.995 -1.141,1.429 -2.569,2.571 -3.996,3.711 -0.574,0.286 -1.144,0.286 -1.715,0.286 -0.568,0 -0.856,0 -1.143,-0.286 -0.571,-0.569 -0.571,-1.14 -0.285,-1.996 0,-0.857 0.86,-1.429 1.428,-2.002 1.141,-2.569 2.568,-4.852 3.426,-7.422 0.856,-3.426 1.428,-6.849 2.569,-10.276 1.142,-3.712 3.713,-6.853 5.994,-10.279 -0.854,-0.285 -1.996,-0.57 -3.138,-0.856 -1.998,2.854 -5.114,9.246 -7.972,11.533 -2.568,1.712 -6.05,2.037 -8.906,2.323 -0.858,0 -2.199,0.29 -3.14,-1.141 -0.35,-0.534 0,-1.144 0,-2 0.572,-2.285 0.219,-4.442 1.646,-6.155 1.713,-1.998 6.953,-7.416 6.097,-7.701 -1.142,0 -2.286,-0.285 -3.141,-0.857 -0.572,-0.568 -0.857,-1.426 -1.429,-2.568 -1.141,-1.997 -2.567,-3.711 -4.565,-5.139 -3.142,-2.284 -7.425,-3.139 -11.422,-3.71 -4.279,-0.857 -7.993,-1.713 -12.56,-3.997 -1.711,-0.857 -3.426,-2 -3.712,-3.427 -0.286,-1.144 0.286,-2.284 0.571,-3.425 1.715,-4.283 3.141,-7.996 5.713,-11.422 1.995,-2.854 4.791,-5.994 7.932,-7.137 2.853,-1.141 8.939,-2.074 12.366,-2.074 5.71,0 8.533,0.933 14.242,0.363 -6.753,-8.208 -14.398,-16.743 -19.812,-26.162 -2.411,-2.081 -9.869,-8.609 -9.869,-9.724 0,-1.15 3.547,-2.236 4.496,-2.505 -0.045,-0.154 -0.094,-0.304 -0.14,-0.461 -1.267,-1.331 -5.419,-5.787 -5.35,-6.913 0.07,-1.117 1.952,-1.955 3.795,-2.295 -0.161,-2.931 -0.016,-5.95 0.521,-9.074 0,0 17.899,-15.27 22.179,-15.555 -15.532,22.597 -5.526,56.986 15.886,71.548 2.853,-0.285 5.708,-0.573 8.565,0 3.426,0.855 6.847,3.422 8.563,6.565 1.427,3.143 1.715,6.567 1.715,9.992 -1.427,-1.997 -3.141,-3.997 -5.139,-5.712"
         style="fill:#ffffff;fill-opacity:1;fill-rule:evenodd;stroke:none"
         id="path28" /><path
         d="m 113.279,115.512 c 1.711,2.285 3.709,4.282 5.997,5.424 1.426,0.855 3.14,1.429 4.564,2.001 0.285,-0.289 0.575,-0.572 0.858,-0.86 0.288,-0.855 0.288,-1.711 0.288,-2.568 -0.288,-3.142 0,-5.71 -0.861,-8.279 -0.567,-1.143 -1.425,-2.284 -2.567,-3.43 -2.57,-2.282 -5.995,-3.421 -7.707,-6.276 -0.287,-0.859 -0.572,-1.998 -0.857,-3.142 -0.571,-3.709 -0.286,-7.709 0,-11.419 0.57,-6.852 1.992,-17.738 3.381,-24.213 1.446,-6.736 17.682,-27.841 17.682,-27.841 2.388,0.216 5.483,3.69 4.5,5 -6.75,9 -18.998,53.05 -18.711,55.331 0.287,1.144 0.856,2.001 1.424,3.142 2,2.57 4.855,4.569 6.852,7.136 1.431,1.713 2.57,4 3.14,6.286 0.858,3.708 0,7.131 -0.284,11.416 -0.286,1.998 -0.286,3.998 -1.425,5.423 -0.288,0.287 -0.858,0.57 -1.431,0.858 -2.281,-0.571 -4.852,-1.429 -7.136,-2.283 -3.998,-1.714 -8.278,-3.713 -11.417,-6.852 -1.429,-1.431 -2.574,-3.141 -3.712,-4.854 -1.428,0.285 -2.856,1.427 -3.141,2.853 -0.857,-4.281 0.57,-8.563 3.713,-11.418 1.995,2.855 4.283,5.995 6.85,8.565"
         style="fill:#ffffff;fill-opacity:1;fill-rule:evenodd;stroke:none"
         id="path30" /><path
         d="m 144.497,148.677 c -2.155,-2.795 -4.382,-5.53 -5.914,-7.383 11.457,-13.014 18.431,-30.07 18.431,-48.737 0,-40.716 -33.123,-73.842 -73.841,-73.842 -4.68,0 -9.252,0.457 -13.69,1.295 0.554,-2.963 1.382,-6.411 2.282,-9.826 3.731,-0.511 7.537,-0.797 11.408,-0.797 45.858,0 83.169,37.31 83.169,83.17 0,21.612 -8.287,41.314 -21.845,56.12"
         style="fill:#ffffff;fill-opacity:1;fill-rule:nonzero;stroke:none"
         id="path32" /><path
         d="m 221.044,104.089 c 1.427,0 2.702,0.277 3.827,0.833 1.125,0.555 2.08,1.34 2.863,2.354 0.783,1.013 1.386,2.221 1.808,3.623 0.422,1.402 0.633,2.937 0.633,4.603 0,1.666 -0.211,3.2 -0.633,4.603 -0.422,1.402 -1.025,2.61 -1.808,3.623 -0.783,1.014 -1.738,1.798 -2.863,2.354 -1.125,0.555 -2.4,0.833 -3.827,0.833 h -1.024 l -0.03,-22.826 z m -18.471,31.906 h 25.824 c 3.334,0 6.252,-0.486 8.754,-1.458 2.501,-0.972 4.59,-2.332 6.267,-4.082 1.678,-1.749 2.938,-3.846 3.782,-6.289 0.844,-2.444 1.266,-5.138 1.266,-8.081 0,-3.638 -0.623,-6.866 -1.868,-9.684 -1.247,-2.819 -3.095,-5.061 -5.545,-6.727 l 9.401,-25.617 H 230.777 L 223.666,96.55 H 219.99 V 74.099 h -17.417 v 61.896"
         style="fill:#ffffff;fill-opacity:1;fill-rule:nonzero;stroke:none"
         id="path34" /><path
         d="m 258.771,135.995 h 37.847 v -9.538 h -20.399 l -0.031,-16.703 h 15.609 v -9.539 H 276.188 V 83.637 h 20.43 v -9.538 h -37.847 v 61.896"
         style="fill:#ffffff;fill-opacity:1;fill-rule:nonzero;stroke:none"
         id="path36" /><path
         d="m 305.568,135.995 h 17.447 l -0.03,-61.896 h -17.417 v 61.896"
         style="fill:#ffffff;fill-opacity:1;fill-rule:nonzero;stroke:none"
         id="path38" /><path
         d="m 334.467,135.995 h 10.908 l 28.415,-32.989 0.03,32.989 h 6.63 V 74.099 h -10.908 l -28.446,32.864 V 74.099 h -6.629 v 61.896"
         style="fill:#ffffff;fill-opacity:1;fill-rule:nonzero;stroke:none"
         id="path40" /><path
         d="m 409.318,83.179 c 2.009,0 3.817,0.431 5.424,1.291 1.607,0.861 2.968,2.194 4.083,3.999 1.115,1.805 1.969,4.103 2.562,6.894 0.592,2.791 0.888,6.129 0.888,10.017 0,3.86 -0.301,7.151 -0.903,9.872 -0.604,2.721 -1.467,4.949 -2.592,6.685 -1.125,1.736 -2.486,2.999 -4.083,3.791 -1.598,0.791 -3.38,1.187 -5.349,1.187 z m -17.417,52.816 h 18.411 c 5.184,0 9.673,-0.673 13.47,-2.02 3.797,-1.347 6.941,-3.326 9.432,-5.936 2.491,-2.61 4.34,-5.817 5.545,-9.621 1.205,-3.805 1.807,-8.164 1.807,-13.079 0,-4.388 -0.602,-8.477 -1.807,-12.267 -1.205,-3.79 -3.054,-7.096 -5.545,-9.914 -2.491,-2.818 -5.635,-5.033 -9.432,-6.643 -3.797,-1.611 -8.286,-2.416 -13.47,-2.416 h -18.411 v 61.896"
         style="fill:#ffffff;fill-opacity:1;fill-rule:nonzero;stroke:none"
         id="path42" /><path
         d="m 449.395,135.995 h 37.848 v -9.538 h -20.4 l -0.031,-16.703 h 15.61 v -9.539 h -15.61 V 83.637 h 20.431 v -9.538 h -37.848 v 61.896"
         style="fill:#ffffff;fill-opacity:1;fill-rule:nonzero;stroke:none"
         id="path44" /><path
         d="m 496.193,135.995 h 37.848 v -9.538 H 513.64 l -0.03,-16.703 h 15.61 v -9.539 H 513.61 V 83.637 h 20.431 v -9.538 h -37.848 v 61.896"
         style="fill:#ffffff;fill-opacity:1;fill-rule:nonzero;stroke:none"
         id="path46" /><path
         d="m 561.462,104.089 c 1.426,0 2.701,0.277 3.827,0.833 1.124,0.555 2.079,1.34 2.862,2.354 0.783,1.013 1.386,2.221 1.808,3.623 0.422,1.402 0.633,2.937 0.633,4.603 0,1.666 -0.211,3.2 -0.633,4.603 -0.422,1.402 -1.025,2.61 -1.808,3.623 -0.783,1.014 -1.738,1.798 -2.862,2.354 -1.126,0.555 -2.401,0.833 -3.827,0.833 h -1.025 l -0.03,-22.826 z m -18.472,31.906 h 25.824 c 3.334,0 6.253,-0.486 8.754,-1.458 2.501,-0.972 4.59,-2.332 6.268,-4.082 1.677,-1.749 2.937,-3.846 3.781,-6.289 0.844,-2.444 1.266,-5.138 1.266,-8.081 0,-3.638 -0.622,-6.866 -1.869,-9.684 -1.245,-2.819 -3.093,-5.061 -5.543,-6.727 l 9.401,-25.617 h -19.677 l -7.112,22.493 h -3.676 V 74.099 H 542.99 v 61.896"
         style="fill:#ffffff;fill-opacity:1;fill-rule:nonzero;stroke:none"
         id="path48" /><path
         d="m 203.249,44.92 c 0.543,0 0.815,-0.319 0.815,-0.955 0,-1.75 1.071,-3.262 3.214,-4.535 2.143,-1.273 4.678,-1.909 7.606,-1.909 3.18,0 5.778,0.386 7.796,1.159 2.016,0.772 3.025,1.773 3.025,3 0,1.319 -0.795,2.296 -2.385,2.933 -1.164,0.477 -3.52,1 -7.069,1.568 l -1.483,0.239 -1.367,0.238 c -3.84,0.683 -6.322,1.25 -7.447,1.706 -2.346,0.977 -3.519,2.545 -3.519,4.705 0,2.068 1.319,3.636 3.956,4.705 2.191,0.886 5.022,1.33 8.493,1.33 3.491,0 6.438,-0.801 8.843,-2.404 2.404,-1.603 3.606,-3.575 3.606,-5.916 0,-0.636 -0.271,-0.954 -0.814,-0.954 -0.543,0 -0.814,0.318 -0.814,0.954 0,1.75 -1.072,3.262 -3.214,4.535 -2.143,1.273 -4.679,1.91 -7.607,1.91 -3.18,0 -5.778,-0.387 -7.795,-1.16 -2.017,-0.773 -3.025,-1.773 -3.025,-3 0,-1.296 0.853,-2.285 2.56,-2.967 1.143,-0.455 3.471,-0.977 6.98,-1.568 l 2.88,-0.478 c 3.704,-0.591 6.196,-1.159 7.475,-1.704 2.25,-0.955 3.374,-2.512 3.374,-4.672 0,-2.068 -1.319,-3.637 -3.955,-4.705 -2.192,-0.886 -5.023,-1.33 -8.494,-1.33 -3.49,0 -6.438,0.802 -8.842,2.404 -2.405,1.603 -3.607,3.575 -3.607,5.916 0,0.636 0.271,0.955 0.814,0.955"
         style="fill:#ffffff;fill-opacity:1;fill-rule:nonzero;stroke:none"
         id="path50" /><path
         d="M 287.922,57.229 V 36.771 c 0,-0.637 -0.272,-0.955 -0.815,-0.955 -0.543,0 -0.814,0.318 -0.814,0.955 v 9.274 h -21.641 v -9.274 c 0,-0.637 -0.272,-0.955 -0.814,-0.955 -0.543,0 -0.815,0.318 -0.815,0.955 v 20.458 c 0,0.636 0.272,0.954 0.815,0.954 0.542,0 0.814,-0.318 0.814,-0.954 v -9.275 h 21.641 v 9.275 c 0,0.636 0.271,0.954 0.814,0.954 0.543,0 0.815,-0.318 0.815,-0.954"
         style="fill:#ffffff;fill-opacity:1;fill-rule:nonzero;stroke:none"
         id="path52" /><path
         d="m 324.629,58.354 c 0.543,0 0.814,-0.319 0.814,-0.955 V 44.17 c 0,-2.683 1.397,-4.592 4.189,-5.729 1.804,-0.727 4.015,-1.091 6.632,-1.091 2.618,0 4.829,0.364 6.631,1.091 2.793,1.137 4.19,3.046 4.19,5.729 v 13.229 c 0,0.636 0.271,0.955 0.814,0.955 0.543,0 0.815,-0.319 0.815,-0.955 V 44.17 c 0,-3.183 -1.407,-5.524 -4.219,-7.024 -2.133,-1.137 -4.877,-1.705 -8.231,-1.705 -3.335,0 -6.07,0.568 -8.203,1.705 -2.831,1.5 -4.247,3.841 -4.247,7.024 v 13.229 c 0,0.636 0.272,0.955 0.815,0.955"
         style="fill:#ffffff;fill-opacity:1;fill-rule:nonzero;stroke:none"
         id="path54" /><path
         d="m 409.039,57.604 c 0,-0.637 -0.272,-0.955 -0.815,-0.955 h -10.82 V 37.146 c 0,-0.637 -0.271,-0.955 -0.814,-0.955 -0.543,0 -0.815,0.318 -0.815,0.955 v 19.503 h -10.82 c -0.543,0 -0.815,0.318 -0.815,0.955 0,0.636 0.272,0.954 0.815,0.954 h 23.269 c 0.543,0 0.815,-0.318 0.815,-0.954"
         style="fill:#ffffff;fill-opacity:1;fill-rule:nonzero;stroke:none"
         id="path56" /><path
         d="m 468.551,57.604 c 0,-0.637 -0.272,-0.955 -0.815,-0.955 h -10.82 V 37.146 c 0,-0.637 -0.272,-0.955 -0.815,-0.955 -0.543,0 -0.814,0.318 -0.814,0.955 v 19.503 h -10.82 c -0.543,0 -0.815,0.318 -0.815,0.955 0,0.636 0.272,0.954 0.815,0.954 h 23.269 c 0.543,0 0.815,-0.318 0.815,-0.954"
         style="fill:#ffffff;fill-opacity:1;fill-rule:nonzero;stroke:none"
         id="path58" /><path
         d="m 528.848,36.941 c 0,-0.614 -0.272,-0.92 -0.814,-0.92 H 503.95 v 21.378 c 0,0.636 0.272,0.955 0.814,0.955 0.542,0 0.815,-0.319 0.815,-0.955 V 37.896 h 22.455 c 0.542,0 0.814,-0.319 0.814,-0.955"
         style="fill:#ffffff;fill-opacity:1;fill-rule:nonzero;stroke:none"
         id="path60" /><path
         d="M 565.876,46.42 V 38.1 h 22.455 c 0.543,0 0.814,-0.318 0.814,-0.954 0,-0.637 -0.271,-0.955 -0.814,-0.955 h -24.084 v 22.367 h 24.084 c 0.543,0 0.814,-0.318 0.814,-0.954 0,-0.637 -0.271,-0.955 -0.814,-0.955 h -22.455 v -8.32 h 22.455 c 0.543,0 0.814,-0.318 0.814,-0.954 0,-0.637 -0.271,-0.955 -0.814,-0.955 h -22.455"
         style="fill:#ffffff;fill-opacity:1;fill-rule:nonzero;stroke:none"
         id="path62" /></g></g></svg>
